<svg xmlns="http://www.w3.org/2000/svg" width="1800" height="1000" viewBox="0 0 1800 1000">
<defs>
  <linearGradient id="bg" x1="0" y1="0" x2="1" y2="1">
    <stop offset="0" stop-color="#e8f7fb"/>
    <stop offset="1" stop-color="#b3d5e3"/>
  </linearGradient>
  <filter id="shadow" x="-20%" y="-20%" width="140%" height="140%">
    <feDropShadow dx="0" dy="18" stdDeviation="18" flood-color="#517182" flood-opacity=".22"/>
  </filter>
</defs>
<rect width="1800" height="1000" fill="url(#bg)"/>
<ellipse cx="1210" cy="560" rx="470" ry="240" fill="#ffffff" opacity=".78" filter="url(#shadow)"/>
<circle cx="825" cy="405" r="96" fill="#f6debe" opacity=".85"/>
<path d="M760 410 C820 330 900 345 930 420 C870 400 820 450 760 410Z" fill="#ead0aa" opacity=".95"/>
<path d="M1040 485 l120 145 l-90 70 l-130-140z" fill="#8fc3c9" opacity=".85" stroke="#c09a48" stroke-width="8"/>
<path d="M1265 430 l60 190 l-135-122 l170 0 l-135 122z" fill="#f3d287" stroke="#c09a48" stroke-width="9"/>
<circle cx="1420" cy="265" r="115" fill="#f2d7b1" opacity=".9"/>
<path d="M1410 180 l35 170 M1340 245 l155 45 M1370 350 l115-145" stroke="#d7ae77" stroke-width="8" opacity=".6"/>
<text x="1200" y="850" text-anchor="middle" font-family="Georgia,serif" font-size="54" fill="#1f2f3a">Replace this hero with your favorite product photo</text>
</svg>